<svg width="20" height="20" viewBox="0 0 20 20" fill="none" xmlns="http://www.w3.org/2000/svg">
<path d="M1.66667 15.8333V4.16666H18.3333V15.8333H1.66667ZM9.16667 8.33332H10.8333V6.66666H9.16667V8.33332ZM9.16667 10.8333H10.8333V9.16666H9.16667V10.8333ZM6.66667 8.33332H8.33334V6.66666H6.66667V8.33332ZM6.66667 10.8333H8.33334V9.16666H6.66667V10.8333ZM4.16667 10.8333H5.83334V9.16666H4.16667V10.8333ZM4.16667 8.33332H5.83334V6.66666H4.16667V8.33332ZM6.66667 13.3333H13.3333V11.6667H6.66667V13.3333ZM11.6667 10.8333H13.3333V9.16666H11.6667V10.8333ZM11.6667 8.33332H13.3333V6.66666H11.6667V8.33332ZM14.1667 10.8333H15.8333V9.16666H14.1667V10.8333ZM14.1667 8.33332H15.8333V6.66666H14.1667V8.33332Z" fill="#5F6368"/>
</svg>
