<svg width="20" height="20" viewBox="0 0 20 20" fill="none" xmlns="http://www.w3.org/2000/svg">
<path d="M12.9167 11.6667H12.2583L12.025 11.4417C12.5458 10.8366 12.9264 10.124 13.1396 9.35469C13.3528 8.58539 13.3934 7.77847 13.2583 6.99168C12.8667 4.67501 10.9333 2.82501 8.59999 2.54168C7.77967 2.4379 6.94648 2.52315 6.16418 2.79092C5.38188 3.05868 4.6712 3.50186 4.08652 4.08654C3.50184 4.67121 3.05867 5.38189 2.7909 6.1642C2.52314 6.9465 2.43788 7.77969 2.54166 8.60001C2.82499 10.9333 4.67499 12.8667 6.99166 13.2583C7.77846 13.3934 8.58537 13.3528 9.35467 13.1396C10.124 12.9264 10.8366 12.5458 11.4417 12.025L11.6667 12.2583V12.9167L15.2083 16.4583C15.55 16.8 16.1083 16.8 16.45 16.4583C16.7917 16.1167 16.7917 15.5583 16.45 15.2167L12.9167 11.6667ZM7.91666 11.6667C5.84166 11.6667 4.16666 9.99168 4.16666 7.91668C4.16666 5.84168 5.84166 4.16668 7.91666 4.16668C9.99166 4.16668 11.6667 5.84168 11.6667 7.91668C11.6667 9.99168 9.99166 11.6667 7.91666 11.6667Z" fill="#9E9E9E"/>
</svg>
